Genre:Western | Romance | Drama 
Language:English
IMDb: http://www.imdb.com/title/tt0053221/
Source:BluRay.720p.x264.DTS-WiKi Thanks!
Subtitles:Romana

Format/Info : Audio Video Interleave
File size : 1.18 GiB
Duration : 2h 21mn
Overall bit rate : 1 199 Kbps

Video
ID : 0
Format : MPEG-4 Visual
Format profile : Advanced Simple@L5
Format settings, BVOP : Yes
Format settings, QPel : No
Format settings, GMC : No warppoints
Format settings, Matrix : Default (H.263)
Codec ID : XVID
Codec ID/Hint : XviD
Duration : 2h 21mn
Bit rate : 998 Kbps
Width : 640 pixels
Height : 360 pixels
Display aspect ratio : 16:9
Frame rate : 23.976 fps
Color space : YUV
Chroma subsampling : 4:2:0
Bit depth : 8 bits
Scan type : Progressive
Bits/(Pixel*Frame) : 0.181
Stream size : 1 007 MiB (83%)
Writing library : XviD 1.2.1 (UTC 2008-12-04)

Audio
ID : 1
Format : AC-3
Format/Info : Audio Coding 3
Mode extension : CM (complete main)
Codec ID : 2000
Duration : 2h 21mn
Bit rate mode : Constant
Bit rate : 192 Kbps
Channel(s) : 1 channel
Channel positions : Front: C
Sampling rate : 48.0 KHz
Bit depth : 16 bits
Stream size : 194 MiB (16%)
Alignment : Aligned on interleaves
Interleave, duration : 42 ms (1.00 video frame)
Interleave, preload duration : 512 ms


Plot:
A small-town sheriff in the American West enlists the help of a cripple, a drunk, and a young gunfighter in his efforts to hold in jail the brother of the local bad guy.


Screens:
 
http://www.pix2links.com/images/98735042906161990804.png 
http://www.pix2links.com/images/91826961051163927672.png 
http://www.pix2links.com/images/96785337838645378773.png 
http://www.pix2links.com/images/31997159328626299948.png 
http://www.pix2links.com/images/65937743341030202349.png

Greets:

INK,CRYS,IMAGINE,LKRG,FXG,3Li,FLAWL3SS,TA,iLLUSiON,ViSiON,DTRG SAFCuk009,LU,TheFalcon007,MYSTiC,PrisM,Noir,WBZ,LAP,Rx,Kingdom,SAFCuk009+Fabreezy,HDLiTE,TWiZTED,ExtraTorrentRG.ELEKTRI4KA,MAGNAT,CM8
And to all the other p2p grps past and present.